<?xml version="1.0" encoding="UTF-8"?><svg id="_レイヤー_2" xmlns="http://www.w3.org/2000/svg" viewBox="0 0 370 36"><defs><style>.cls-1,.cls-2{fill:#fff;}.cls-2{opacity:0;}</style></defs><g id="_レイヤー_1-2"><g><rect class="cls-2" width="370" height="36"/><g><path class="cls-1" d="m99.11,25.05c-1.32,6.33-6.08,10.95-14.56,10.95-10.74,0-15.79-7.61-15.79-17.23S74.01,1.19,84.89,1.19c9.02,0,13.38,5.25,14.22,10.95h-7.3c-.74-2.65-2.55-5.25-7.16-5.25-6.03,0-8.33,5.45-8.33,11.64,0,5.7,2.01,11.73,8.53,11.73,4.8,0,6.27-3.19,6.91-5.2h7.35Z"/><path class="cls-1" d="m136.46,18.47c0,9.43-5.64,17.53-16.62,17.53s-16.18-7.71-16.18-17.43S109.79,1.19,120.28,1.19c9.9,0,16.18,6.92,16.18,17.28Zm-25.25-.05c0,6.63,2.89,11.64,8.87,11.64,6.52,0,8.82-5.45,8.82-11.49,0-6.43-2.65-11.44-8.92-11.44s-8.78,4.71-8.78,11.29Z"/><path class="cls-1" d="m205.24,25.05c-1.32,6.33-6.08,10.95-14.56,10.95-10.74,0-15.79-7.61-15.79-17.23s5.25-17.58,16.13-17.58c9.02,0,13.38,5.25,14.22,10.95h-7.3c-.74-2.65-2.55-5.25-7.16-5.25-6.03,0-8.33,5.45-8.33,11.64,0,5.7,2.01,11.73,8.53,11.73,4.8,0,6.27-3.19,6.91-5.2h7.35Z"/><path class="cls-1" d="m211.46,1.68h7.3v13.16h13.63V1.68h7.3v33.83h-7.3v-14.63h-13.63v14.63h-7.3V1.68Z"/><path class="cls-1" d="m254.5,7.67h-10.29V1.68h27.85v5.99h-10.25v27.84h-7.3V7.67Z"/><path class="cls-1" d="m299.85,20.93h-16.18v8.59h17.84l-.88,5.99h-24.07V1.68h23.97v5.99h-16.86v7.22h16.18v6.04Z"/><path class="cls-1" d="m335.54,25.05c-1.32,6.33-6.08,10.95-14.56,10.95-10.74,0-15.79-7.61-15.79-17.23s5.25-17.58,16.13-17.58c9.02,0,13.38,5.25,14.22,10.95h-7.3c-.74-2.65-2.55-5.25-7.16-5.25-6.03,0-8.33,5.45-8.33,11.64,0,5.7,2.01,11.73,8.53,11.73,4.8,0,6.27-3.19,6.91-5.2h7.35Z"/><path class="cls-1" d="m341.76,1.68h7.3v13.16h13.63V1.68h7.3v33.83h-7.3v-14.63h-13.63v14.63h-7.3V1.68Z"/><path class="cls-1" d="m159.99,1.68h-9.17l-11.47,33.83h7.21c1.91-6.14,7.75-25.24,8.58-28.58h.05c.83,3.04,6.72,21.41,9.12,28.58-.03-.07,0,0,0,0h7.7L159.99,1.68Z"/></g><path class="cls-1" d="m56.69,0H22.26C12.33,0,2.55,8.06.42,18H.42c-2.14,9.94,4.18,18,14.1,18h10.89c1.47,0,2.92-1.19,3.24-2.67l1.52-7.06c.32-1.47-.62-2.67-2.09-2.67h-12.11c-2.76,0-4.71-2.13-4.2-4.89.53-2.86,3.32-5.2,6.16-5.2h19.04c1.47,0,2.41,1.19,2.09,2.67l-3.69,17.16c-.32,1.47.62,2.67,2.09,2.67h8.83c1.47,0,2.92-1.19,3.24-2.67l3.69-17.16c.32-1.47,1.77-2.67,3.24-2.67h0c1.47,0,2.92-1.19,3.24-2.67l2.33-10.84h-5.33Z"/></g></g></svg>